<svg width="177" height="177" viewBox="0 0 177 177" fill="none" xmlns="http://www.w3.org/2000/svg">
<path opacity="0.5" d="M82.7711 53.6294C74.8554 2.18869 43.1238 13.7381 70.1255 58.232C43.1238 13.7381 18.2255 36.5496 60.1993 67.3264C18.2255 36.5496 3.95605 67.1506 54.5127 79.5214C3.95605 67.1506 2.4857 100.887 53.9243 92.9653C2.48361 100.881 14.033 132.613 58.527 105.611C14.033 132.613 36.8482 157.503 67.6192 115.531C36.8482 157.503 67.4492 171.773 79.8143 121.218C67.4413 171.769 101.177 173.239 93.2581 121.806C101.174 173.247 132.905 161.698 105.904 117.204C132.905 161.698 157.796 138.883 115.824 108.111C157.796 138.883 172.065 108.282 121.511 95.9164C172.062 108.289 173.532 74.5532 122.099 82.4725C173.54 74.5569 161.991 42.8252 117.497 69.8269C161.991 42.8252 139.175 17.9348 108.404 59.9065C139.175 17.9348 108.574 3.66531 96.2093 54.2199C108.582 3.66896 74.846 2.1986 82.7654 53.6315L82.7711 53.6294Z" fill="url(#paint0_linear_5243_1167)"/>
<path opacity="0.5" d="M81.7106 47.1207C81.8569 46.9774 81.9301 46.9057 81.9935 46.846C85.374 43.6628 90.6487 43.6628 94.0291 46.846C94.0925 46.9057 94.1657 46.9774 94.312 47.1207C94.3998 47.2067 94.4437 47.2497 94.4854 47.2895C96.6485 49.3539 99.7138 50.1753 102.619 49.469C102.675 49.4554 102.735 49.4401 102.854 49.4095C103.052 49.3585 103.151 49.333 103.236 49.313C107.755 48.2465 112.323 50.8839 113.659 55.3309C113.684 55.4143 113.712 55.5129 113.767 55.7102C113.8 55.8286 113.817 55.8877 113.833 55.9431C114.674 58.8125 116.918 61.0564 119.787 61.8975C119.843 61.9137 119.902 61.9303 120.02 61.9633C120.217 62.0183 120.316 62.0458 120.399 62.0709C124.846 63.4069 127.484 67.9749 126.417 72.4941C126.397 72.5788 126.372 72.678 126.321 72.8764C126.29 72.9954 126.275 73.0549 126.261 73.111C125.555 76.0165 126.376 79.0817 128.441 81.2449C128.481 81.2866 128.524 81.3305 128.61 81.4183C128.753 81.5646 128.825 81.6377 128.884 81.7011C132.067 85.0816 132.067 90.3563 128.884 93.7368C128.825 93.8002 128.753 93.8733 128.61 94.0196C128.524 94.1074 128.481 94.1513 128.441 94.193C126.376 96.3562 125.555 99.4214 126.261 102.327C126.275 102.383 126.29 102.442 126.321 102.562C126.372 102.76 126.397 102.859 126.417 102.944C127.484 107.463 124.846 112.031 120.399 113.367C120.316 113.392 120.217 113.42 120.02 113.475C119.902 113.508 119.842 113.524 119.787 113.54C116.918 114.382 114.674 116.625 113.833 119.495C113.817 119.55 113.8 119.609 113.767 119.728C113.712 119.925 113.684 120.024 113.659 120.107C112.323 124.554 107.755 127.191 103.236 126.125C103.151 126.105 103.052 126.079 102.854 126.028C102.735 125.998 102.675 125.983 102.619 125.969C99.7137 125.263 96.6485 126.084 94.4854 128.148C94.4437 128.188 94.3998 128.231 94.312 128.317C94.1657 128.461 94.0925 128.532 94.0291 128.592C90.6487 131.775 85.374 131.775 81.9935 128.592C81.9301 128.532 81.8569 128.461 81.7106 128.317C81.6228 128.231 81.579 128.188 81.5372 128.148C79.3741 126.084 76.3089 125.263 73.4033 125.969C73.3473 125.983 73.2878 125.998 73.1687 126.028C72.9704 126.079 72.8712 126.105 72.7864 126.125C68.2673 127.191 63.6992 124.554 62.3632 120.107C62.3382 120.024 62.3107 119.925 62.2556 119.728C62.2226 119.609 62.2061 119.55 62.1899 119.495C61.3487 116.625 59.1049 114.382 56.2355 113.54C56.1801 113.524 56.1209 113.508 56.0025 113.475C55.8053 113.42 55.7066 113.392 55.6232 113.367C51.1763 112.031 48.5389 107.463 49.6054 102.944C49.6254 102.859 49.6509 102.76 49.7019 102.562C49.7324 102.442 49.7477 102.383 49.7614 102.327C50.4676 99.4214 49.6463 96.3562 47.5819 94.193C47.5421 94.1513 47.4991 94.1074 47.4131 94.0196C47.2697 93.8733 47.1981 93.8002 47.1384 93.7368C43.9552 90.3563 43.9552 85.0816 47.1384 81.7011C47.1981 81.6377 47.2697 81.5646 47.4131 81.4183C47.4991 81.3305 47.5421 81.2866 47.5819 81.2449C49.6463 79.0817 50.4676 76.0165 49.7614 73.111C49.7477 73.0549 49.7324 72.9954 49.7019 72.8764C49.6509 72.678 49.6254 72.5788 49.6054 72.4941C48.5389 67.9749 51.1763 63.4069 55.6232 62.0709C55.7066 62.0458 55.8053 62.0183 56.0025 61.9633C56.1209 61.9303 56.1801 61.9137 56.2355 61.8975C59.1049 61.0564 61.3487 58.8125 62.1899 55.9431C62.2061 55.8877 62.2226 55.8286 62.2556 55.7102C62.3107 55.5129 62.3382 55.4143 62.3632 55.3309C63.6992 50.8839 68.2673 48.2465 72.7864 49.313C72.8712 49.333 72.9704 49.3585 73.1687 49.4095C73.2878 49.4401 73.3473 49.4554 73.4033 49.469C76.3089 50.1753 79.3741 49.3539 81.5372 47.2895C81.5789 47.2497 81.6228 47.2067 81.7106 47.1207Z" fill="url(#paint1_linear_5243_1167)"/>
<path opacity="0.4" d="M90.693 74.2502C94.7367 53.9251 81.291 53.9251 85.3347 74.2502C81.291 53.9251 68.8685 59.0695 80.3822 76.3012C68.8685 59.0695 59.362 68.576 76.5937 80.0897C59.362 68.576 54.2175 80.9986 74.5427 85.0398C54.2175 80.9961 54.2175 94.4418 74.5427 90.3981C54.2175 94.4418 59.3644 106.862 76.5937 95.3482C59.3644 106.862 68.8709 116.368 80.3822 99.1367C68.8685 116.366 81.291 121.51 85.3323 101.188C81.2886 121.513 94.7342 121.513 90.6906 101.188C94.7342 121.513 107.154 116.366 95.6407 99.1367C107.154 116.366 116.661 106.859 99.4292 95.3482C116.658 106.862 121.803 94.4393 101.48 90.3981C121.805 94.4418 121.805 80.9961 101.48 85.0398C121.805 80.9961 116.658 68.576 99.4292 80.0897C116.658 68.576 107.152 59.0695 95.6407 76.3012C107.154 59.072 94.7318 53.9275 90.6906 74.2502H90.693Z" fill="white"/>
<defs>
<linearGradient id="paint0_linear_5243_1167" x1="122.075" y1="-1.41749" x2="45.1458" y2="208.894" gradientUnits="userSpaceOnUse">
<stop stop-color="#FFE364"/>
<stop offset="1" stop-color="#FF00B7"/>
</linearGradient>
<linearGradient id="paint1_linear_5243_1167" x1="125.504" y1="44.4586" x2="38.9829" y2="147.235" gradientUnits="userSpaceOnUse">
<stop stop-color="#FFE364"/>
<stop offset="1" stop-color="#FF00B7"/>
</linearGradient>
</defs>
</svg>
